<svg version="1.2" xmlns="http://www.w3.org/2000/svg" viewBox="0 0 107 105" width="107" height="105">
	<title>logo-svg</title>
	<style>
		tspan { white-space:pre } 
		.s0 { fill: #eebbc3 } 
		.s1 { fill: #ff4a3f } 
		.t2 { font-size: 55px;fill: #232946;font-weight: 400;font-family: "Poppins-Regular", "Poppins" } 
	</style>
	<g id="SvgjsG2685">
		<g id="g17">
			<path id="path7" class="s0" d="m97.2 74.7l0.6-1.5 0.5-1.5c0.2-0.5 0.6-1.8 0.8-2.6q0.1-0.1 0.1-0.1 0-0.1 0-0.2 0.1-0.1 0.1-0.2 0.1-0.1 0.1-0.2h0.1v-1c0.5-0.1 0.4-0.6 0.5-0.9l0.8-4.6q0.2-0.8 0.3-1.5 0.1-0.8 0.1-1.6 0-0.7-0.1-1.5-0.1-0.8-0.3-1.5 0-0.2 0-0.4 0-0.3-0.1-0.5 0-0.2-0.1-0.4-0.1-0.1-0.3-0.3v-4.2c-0.3-0.9 0.3-1.9-0.4-2.7l-0.8-3.1q0 0 0-0.1 0 0 0 0 0 0 0-0.1 0 0 0 0l-0.2-0.6q0 0 0-0.1 0 0 0-0.1 0 0 0-0.1 0 0 0-0.1h0.1c0.3 0 0.3-0.5 0.3-0.9q0-0.1 0-0.3-0.1-0.1-0.1-0.2-0.1-0.2-0.1-0.3-0.1-0.1-0.2-0.2l-0.3-0.4q0-0.1 0-0.2-0.1-0.1-0.1-0.2 0-0.1 0-0.1-0.1-0.1-0.1-0.2 0.1-0.3 0.1-0.5-0.1-0.3-0.1-0.5 0-0.3 0-0.5-0.1-0.3-0.2-0.5v-0.6c-0.1-0.7-0.3-1.5-0.5-2.1l-0.2-0.5q-0.1-0.2-0.2-0.3 0-0.1-0.1-0.3 0-0.1-0.1-0.2 0-0.2 0-0.3 0-0.1-0.1-0.2 0-0.1 0-0.2-0.1-0.1-0.1-0.2-0.1-0.1-0.1-0.2l-0.6-1q-0.1 0-0.1-0.1-0.1 0-0.2 0-0.1-0.1-0.1-0.1-0.1 0-0.2 0h-0.1v-0.3h-0.2v-0.8h-0.1v-0.2q0 0 0 0 0 0 0 0 0 0 0 0 0 0 0-0.1v-0.2c0.1-0.1 0.1-0.2-0.1-0.4q-0.1-0.1-0.1-0.2-0.1 0-0.1-0.1-0.1-0.1-0.1-0.2-0.1 0-0.1-0.1l-0.2-0.6q0-0.2-0.1-0.3-0.1-0.2-0.2-0.4 0-0.1-0.1-0.2-0.1-0.2-0.3-0.3 0-0.1-0.1-0.2-0.1 0-0.1-0.1-0.1-0.1-0.2-0.2 0-0.1-0.1-0.2l-0.6-1.6q-0.1-0.1-0.2-0.2 0-0.1-0.1-0.3-0.1-0.1-0.2-0.2 0-0.1-0.1-0.2l-0.6-0.8q-0.1-0.1-0.2-0.2 0-0.1-0.1-0.2 0-0.1 0-0.2-0.1-0.1-0.1-0.2l-0.2-0.3q-0.1-0.1-0.1-0.1 0-0.1 0-0.1 0-0.1 0-0.2 0 0 0-0.1 0-0.1 0-0.1 0-0.1-0.1-0.1 0-0.1 0-0.1-0.1-0.1-0.1-0.1l-0.4-0.3v0.2c0.1 0.2 0 0.3-0.1 0.3h-0.2l0.3 1 0.3 0.5 0.7 0.9h-0.1l-0.2-0.2-0.2-0.2q0-0.2-0.1-0.4-0.2-0.2-0.3-0.4-0.2-0.1-0.4-0.2-0.2-0.1-0.4-0.1v-0.7c-0.3-1.2-1.6-1.3-2.2-2.1q0-0.1-0.1-0.3-0.1-0.1-0.3-0.2-0.1-0.2-0.3-0.2-0.2-0.1-0.3-0.1l-0.8-0.9q-0.3-0.5-0.7-0.9-0.3-0.4-0.7-0.7-0.4-0.4-0.8-0.7-0.4-0.4-0.9-0.7l-0.7-0.6-0.4-0.3c-0.7-0.6-1-1.7-2.2-1.7l-0.8-0.5-0.9-0.7q-0.1-0.3-0.3-0.5-0.1-0.2-0.4-0.4-0.2-0.1-0.5-0.3-0.3-0.1-0.5-0.1-0.3-0.2-0.5-0.4-0.3-0.2-0.6-0.3-0.3-0.2-0.6-0.3-0.3-0.1-0.6-0.2l0.2 0.2 0.5 0.4 1.3 0.7q0.3 0.2 0.5 0.4 0.3 0.1 0.6 0.3 0.2 0.2 0.5 0.4 0.2 0.3 0.4 0.5 0.2 0.1 0.4 0.3 0.1 0.1 0.3 0.3 0.2 0.1 0.4 0.2 0.2 0.2 0.4 0.3l0.6 0.5c0.1 0.1 0.2 0.2 0.1 0.3h-0.1l-0.9-0.3q-0.3-0.1-0.5-0.2-0.3 0-0.5-0.1-0.3-0.1-0.5-0.3-0.2-0.1-0.5-0.2l-1.1-0.6-1.3-0.7h-0.2c-0.3-0.1-0.4-0.4-0.8-0.5l-0.8-0.2-2.4-0.5q-0.2 0-0.3-0.1-0.1-0.1-0.2-0.2-0.1-0.1-0.2-0.2-0.1-0.1-0.2-0.2-0.1 0-0.3 0-0.1 0-0.2-0.1-0.1 0-0.2 0-0.1-0.1-0.2-0.2l-1-0.4q-0.3 0-0.7-0.1-0.3-0.1-0.7-0.2-0.3-0.1-0.7-0.2-0.3-0.1-0.6-0.2l-0.6-0.2-1-0.3h-0.5l-0.2-0.3v-0.1h-1.6l-0.6-0.5-0.3 0.2-0.4 0.2h-0.2l-0.9-0.5c-0.6 0.6-1.1-0.2-1.6-0.1l-1-0.3q-0.1 0.1-0.3 0.1-0.1 0.1-0.3 0.1-0.1 0-0.3-0.1-0.1 0-0.3-0.1h-1.1q-0.1 0-0.2-0.1-0.1 0-0.2-0.1-0.1-0.1-0.1-0.2 0-0.1 0-0.2l0.3-0.2h0.6q0 0 0 0.1 0 0 0 0.1 0 0 0.1 0 0 0.1 0 0.1c0 0.2 0.2 0.2 0.5 0.2h0.1l-0.3-0.6q-0.1-0.1-0.3-0.1-0.1-0.1-0.2-0.1-0.1 0-0.3 0-0.1 0-0.2 0l-1 0.3h-0.1c0.3 0.2 0.2 0.3 0.2 0.5h-1.6l-0.4-0.2-0.8-0.4h-0.1l-0.6-0.2h-2.3l0.4-0.2 0.8-0.2h0.3l1.6-0.3 1.1-0.2 0.6-0.2h-1.1q-0.4-0.1-0.8-0.1-0.4 0-0.8 0-0.5 0-0.9 0-0.4 0-0.8 0.1h-1.3l-3.3-0.1c-1.4 0.1-2.8 0-3.9 1.2-2.4-0.4-4.6 0.7-6.7 1.8l-2.2 0.9q-0.5 0-1 0.2-0.5 0.1-0.9 0.4-0.5 0.2-0.9 0.5-0.5 0.3-0.8 0.6h0.3l0.5-0.3 0.7-0.5 1.3-0.5 1-0.2q0.2-0.2 0.5-0.3 0.2-0.2 0.4-0.3 0.3-0.1 0.5-0.2 0.3-0.1 0.6-0.1l0.9-0.3h0.1c0.1 0.2 0.5 0 0.7 0h0.2c0.1 0 0.1 0.1 0 0.1l-0.6 0.4 1-0.3 0.8-0.2-1.3 0.7-1.2 0.4q-0.1 0-0.2 0-0.1 0.1-0.2 0.1-0.1 0.1-0.1 0.2-0.1 0.1-0.1 0.2l-0.3 0.4h0.3l0.4-0.2q0-0.1 0.1-0.2 0.1-0.1 0.2-0.1 0.2-0.1 0.3-0.2 0.1 0 0.2 0l1.5-0.5h0.5q0.1 0 0.1 0 0 0 0 0 0.1 0.1 0.1 0.1-0.1 0-0.1 0.1c-0.2 0.2-0.6 0.3-0.8 0.5h0.2l-3.1 0.8-3.8 1.6q-0.2 0.2-0.5 0.4-0.2 0.2-0.5 0.3-0.3 0.2-0.6 0.3-0.3 0.1-0.6 0.2-0.2 0.2-0.4 0.3-0.2 0.2-0.4 0.3-0.2 0.1-0.4 0.2-0.3 0.2-0.5 0.3l-0.8 0.2q-0.1 0.2-0.2 0.3-0.1 0.2-0.3 0.3-0.2 0.1-0.3 0.2-0.2 0-0.4 0.1l-0.3 0.4q-0.2 0.2-0.3 0.4-0.1 0.1-0.3 0.2-0.1 0.2-0.3 0.3-0.1 0.1-0.3 0.2h-0.1v-0.1l-0.2 0.2-0.2 0.2-1 0.2h-0.5l-0.4 0.5c-0.1 0.1-0.1 0.2 0 0.2h0.1c-0.6 0.6-1 1.4-1.7 1.7l-1.3 1.4c-0.6 1.2-1.8 1.6-2.6 2.6-0.8 1-1.4 3.8-3.8 4.2l-0.2-0.3-0.2 0.5q0 0.1-0.1 0.2 0 0.1-0.1 0.2 0 0.1-0.1 0.2 0 0.1-0.1 0.2-0.2 0.2-0.3 0.5-0.2 0.3-0.3 0.5-0.2 0.3-0.3 0.5-0.1 0.3-0.3 0.6 0 0 0 0.1 0 0-0.1 0.1 0 0.1 0 0.1 0 0.1 0 0.2 0 0.1 0 0.2 0 0.1 0 0.2 0 0.1-0.1 0.2 0 0.1-0.1 0.1l-0.5 1.1h0.2c0.3 0 0.3 0.3 0.4 0.6l0.8-1.1q0.1-0.1 0.1-0.2 0.1-0.1 0.2-0.1 0.1-0.1 0.1-0.2 0.1-0.1 0.2-0.2 0.1 0 0.3-0.1 0.1-0.1 0.2-0.2 0.1-0.1 0.2-0.3 0.1-0.1 0.2-0.2l0.3-0.3 0.4-0.4 0.6-1.1h0.2c0.1 0.1 0.1 0.1 0.2 0l0.2-0.4h0.4v0.8l0.5-0.5q0.1-0.1 0.1-0.1 0-0.1 0-0.2 0 0 0-0.1 0 0-0.1-0.1 0 0 0-0.1 0 0 0.1-0.1 0 0 0 0 0-0.1 0-0.1 0.1 0 0.1-0.1 0.1-0.1 0.1-0.1 0-0.1 0.1-0.2 0 0 0-0.1 0.1-0.1 0.1-0.3 0.1-0.1 0.2-0.2 0.1-0.1 0.2-0.2 0.2-0.1 0.3-0.2l0.3-0.2 0.3-0.3q0.1-0.1 0.3-0.2 0.1-0.1 0.2-0.2 0.1-0.1 0.1-0.3 0.1-0.1 0.2-0.2l-0.2-0.3c0-0.1 0.1-0.3 0.2-0.4h0.5l0.6-0.8 0.6-0.3h0.2q-0.8 0.8-1.5 1.7-0.7 0.8-1.4 1.7-0.7 0.9-1.3 1.8-0.7 0.9-1.2 1.9h-0.1 0.1q-0.9 1.2-1.6 2.6-0.7 1.3-1.4 2.7-0.7 1.4-1.2 2.8-0.6 1.4-1 2.9h-0.5l-0.5-0.4c-0.2-0.2-0.1-0.7-0.4-0.9h0.1c0.3-0.5-0.1-1.2 0.3-1.7 0.4-0.5 0.1-1.4-0.9-1.2-1 0.2-1.5 0.5-1.3 1.5 0.2 1-1 1.8-1.1 2.9-0.1 1-0.5 0.4-0.3 0.8v3.9c0.1 0.8-0.5 1.7 0.8 2l1.3 0.9c0.1 0.5-0.5 1.6 0.9 1.3q-0.1 0.6-0.1 1.2-0.1 0.6-0.1 1.2-0.1 0.7-0.1 1.3 0 0.6 0 1.2c0 1.1 0.1 2.2 0.1 3.2v-0.3c-0.1-0.4-0.1-0.8-0.2-1.3l-0.3 0.3v-0.2h-0.5c0 0.5-0.1 0.8-0.4 0.9q0 0 0 0.1-0.1 0-0.1 0.1 0 0.1 0 0.1 0 0.1 0 0.1c0 0.1 0.1 0.3 0.2 0.2 0.1-0.1 0.4 0.2 0.7 0.4 0.3 0.2-0.2 0.3-0.4 0.2-0.2-0.1-0.2 0.1-0.2 0.3v0.3l0.5 1.5c0 0.3-0.1 0.6-0.1 0.9q0 0.1 0 0.2 0 0.1 0 0.2 0.1 0.1 0.1 0.2 0 0.1 0.1 0.2h-0.3v-0.3l-0.7-0.2v-0.6q0-0.1 0-0.1 0-0.1 0-0.2 0 0 0-0.1 0 0 0-0.1 0-0.2-0.1-0.4 0-0.3-0.1-0.5 0-0.2 0-0.4-0.1-0.2-0.1-0.5-0.1-0.4-0.1-0.8 0-0.5-0.1-0.9 0-0.4 0-0.8 0-0.5 0-0.9 0-0.1 0-0.1 0-0.1 0-0.2 0 0 0.1-0.1 0 0 0-0.1v0.2q0 0.1 0.1 0.1 0 0.1 0 0.1 0 0.1 0 0.2 0 0 0 0.1 0 0 0 0.1 0 0 0 0.1 0.1 0 0.1 0.1 0 0 0 0.1c0.1 0.2 0.2 0.4 0.4 0.4 0.2 0 0.1-0.1 0.1-0.2q0-0.1 0-0.1 0-0.1 0-0.2 0 0-0.1-0.1 0-0.1 0-0.1-0.1-0.2-0.1-0.3-0.1-0.2-0.1-0.3 0-0.2 0-0.4-0.1-0.1-0.1-0.3 0-0.1 0-0.2-0.1-0.1-0.1-0.2 0 0-0.1-0.1 0-0.1-0.1-0.2 0-0.1-0.1-0.2 0-0.1 0-0.2-0.1-0.1-0.1-0.2 0-0.1 0-0.3v-0.7c0-0.3 0.1-0.6 0.1-0.9q0-0.1 0-0.1 0-0.1 0-0.1 0-0.1 0-0.1 0-0.1-0.1-0.1h-0.1c-0.8 0.4-0.7 0.2-1 1.5v1.8c0 0.7-0.1 1.4 0 2.1q0 0.3 0 0.5 0.1 0.3 0.1 0.6 0 0.3 0 0.6 0.1 0.3 0.1 0.5 0 0.1 0.1 0.2 0 0 0 0.1 0 0 0 0.1-0.1 0.1-0.1 0.1 0 0.1 0 0.2 0 0.2 0.1 0.3 0 0.1 0 0.2 0 0.1 0 0.2 0.1 0.2 0.1 0.3 0 0.2 0 0.3 0 0.2 0 0.4 0 0.1 0 0.3 0 0.2 0 0.4 0 0.2 0 0.4 0.1 0.2 0.1 0.4 0.1 0.3 0.1 0.5 0 0 0 0.1 0 0 0 0.1 0 0 0 0.1 0 0 0 0 0 0.1 0 0.2 0 0.1 0 0.2 0.1 0.1 0.1 0.2 0 0.1 0 0.2 0.1 0.1 0.1 0.3 0 0.1 0.1 0.2 0 0.1 0 0.2 0 0.1 0 0.2 0.1 0.3 0.1 0.6 0.1 0.2 0.1 0.5 0.1 0.3 0.2 0.5 0 0.3 0.1 0.6 0.1 0.1 0.1 0.2 0 0.1 0 0.3 0.1 0.1 0.1 0.2 0 0.1 0 0.3 0 0.1 0.1 0.1 0 0.1 0 0.2 0.1 0.1 0.1 0.2 0.1 0.1 0.1 0.1 0.1 0.2 0.2 0.3 0.1 0.2 0.1 0.3 0.1 0.2 0.1 0.3 0.1 0.2 0.1 0.3 0 0.2 0.1 0.3 0 0.1 0 0.2 0.1 0.1 0.1 0.3 0.1 0.1 0.1 0.2l0.4 1.4q0 0.2 0.1 0.4 0.1 0.2 0.1 0.3 0.1 0.2 0.2 0.4 0.1 0.2 0.2 0.4 0.1 0.2 0.2 0.5 0.1 0.2 0.2 0.5 0.1 0.2 0.2 0.5 0.1 0.2 0.2 0.5l0.2 0.5q0.1 0.1 0.1 0.2 0.1 0.1 0.2 0.3 0 0.1 0.1 0.2 0 0.2 0.1 0.3 0 0.1 0 0.2 0.1 0.1 0.1 0.2 0.1 0.1 0.1 0.2 0.1 0.1 0.1 0.2 0.1 0 0.1 0.1 0.1 0 0.1 0.1 0 0.1 0 0.1 0 0.1 0 0.2c0.1 0.3 0.2 0.4 0.4 0.3h0.1v0.8l0.5 1 0.5 1 1.1 1.2 0.4 0.4c0.3 0.3 0.7 0.5 0.9 1l0.4 0.3q0 0 0.1 0.1 0 0 0.1 0.1 0 0 0 0.1 0 0.1 0.1 0.1l0.2 0.7q0 0.2 0.1 0.3 0 0.1 0.1 0.2 0.1 0.1 0.2 0.2 0.1 0.1 0.1 0.2l0.4 0.2h0.3q0.1 0 0.1 0.1 0 0 0.1 0 0 0.1 0 0.1 0 0.1-0.1 0.1 0 0.1 0 0.1 0 0.1 0 0.2 0 0 0 0.1 0 0 0 0.1 0.1 0.1 0.1 0.2 0 0 0.1 0.1 0 0 0.1 0.1 0.1 0.1 0.1 0.1h0.2c0.4-0.1 0.8 0.2 1.2 0.7h0.1c0-0.1 0.1-0.1 0-0.2v-0.2c0-0.1 0.1-0.2 0.2-0.1q0.1 0 0.1 0.1 0.1 0.1 0.1 0.1 0.1 0.1 0.1 0.2 0 0.1 0 0.2v0.2q0 0.1 0.1 0.3 0 0.1 0 0.3 0.1 0.1 0.1 0.3 0.1 0.1 0.2 0.3c0.5 0.2 0.5 0.2 0.5 0.1 0-0.2 0-0.2 0.2-0.2h0.4l0.2 0.3 0.7 0.4c0.7 0.8 1.8 0.7 2.6 1.2l1.7 1.7h0.2q0.1 0.3 0.2 0.5 0.2 0.2 0.4 0.4 0.2 0.2 0.4 0.4 0.3 0.2 0.5 0.3 0.1 0.1 0.2 0.2 0.1 0.1 0.3 0.2 0.1 0 0.2 0.1 0.2 0 0.3 0.1c0 0.4 0.6 0.5 1.1 0.6q0.1 0.1 0.2 0.2 0 0.1 0.1 0.1 0.1 0.1 0.3 0.1 0.1 0 0.2 0h0.2q0.1 0.2 0.3 0.3 0.2 0.1 0.4 0.2 0.1 0 0.3 0 0.2 0.1 0.4 0l0.9 0.8 2.4 0.9v0.2c0.5 1.1 1.7 0.7 2.4 1l1.1 0.4h0.4c1.2 0.3 2.4 0.8 3.7 0.5q-0.1 0-0.1 0.1 0 0 0 0.1 0 0 0 0 0 0.1 0.1 0.1c1 0.7 2.3 0 3.5 0.4q0.2 0.1 0.4 0.2 0.2 0 0.4 0 0.2 0 0.4 0 0.2 0 0.5-0.1h0.1l0.7 0.2h0.3l0.9 0.2h0.3q0.1 0 0.1 0 0.1 0 0.2 0 0 0 0.1 0 0 0 0.1 0 0.2 0.1 0.4 0.2 0.1 0 0.3 0.1 0.2 0 0.4 0.1 0.2 0 0.4 0h0.6q0 0 0.1 0 0.1-0.1 0.2-0.1 0.1 0 0.2 0.1 0.1 0 0.2 0h3.8q0.2 0 0.4 0 0.2 0.1 0.4 0 0.2 0 0.4 0 0.2 0 0.4-0.1h0.9l0.5-0.2h3.3l0.6-0.2 0.4-0.3h2.2v0.6h-1.3l-1.1 0.2c-0.4 0.1-0.7 0-1 0.1q-0.1 0.1-0.3 0.1-0.1 0-0.2 0.1-0.1 0-0.3 0-0.1 0-0.2 0l-1.3 0.3h-0.4q-0.2 0-0.3 0-0.2 0-0.4 0-0.2 0-0.4 0-0.2 0.1-0.4 0.1h-1.7q-0.1 0.1-0.2 0.1-0.1 0-0.3 0-0.1 0-0.2 0-0.1 0-0.2-0.1h-4.4q-0.2 0-0.3 0-0.2 0-0.3 0-0.1 0.1-0.3 0.1-0.1 0.1-0.2 0.2h-0.3l-0.3-0.2v-0.3h-1.2q-0.1 0-0.3-0.1-0.1 0-0.3-0.1-0.2 0-0.3 0-0.2-0.1-0.3-0.1h-2.5l-0.7-0.2-0.5-0.2-2-0.4h-0.5l-0.5-0.2-2.1-0.6-1.4-0.4h-2.1c-0.1 0-0.1 0.1-0.1 0.2h0.2c1.3 0.4 2.5 0.8 3.8 1.4h0.3l0.9 0.2 1.4 0.4h1.2l0.6 0.2 0.7 0.3 1.7 0.3 1.1 0.2 1 0.2h0.8l0.8 0.2h3.1l0.9 0.2h2.3l1-0.2h2.1c0.4 0 0.6-0.1 0.7-0.3h1q0.1 0 0.2 0 0.1 0 0.2-0.1 0.1 0 0.2-0.1 0.1 0 0.2-0.1c-0.1 0.1 0 0.1 0.1 0.2h0.4v-0.2c0-0.1 0-0.1 0.2-0.2 0.2-0.1 0.6-0.1 0.7 0.1h0.4l0.3-0.2c0.2 0 0.2 0 0.2 0.1h0.6l0.5-0.2 0.8-0.4c0.1 0.3 0.4 0.4 1.3 0.2l1.3-0.4h1.2c0.8-0.1 1.9 0 2.6-0.7h0.2l0.4-0.3 1.1-0.3q0.2 0 0.5-0.1 0.2-0.1 0.5-0.2 0.2-0.1 0.5-0.2 0.2-0.1 0.4-0.2l0.4-0.2h0.1l0.9-0.6 0.4-0.2 0.5-0.2h0.4c0.4-0.1 0.4-0.1 0.5-0.4 0.1-0.3 0-0.1-0.2-0.1h-0.1l0.4-0.5h0.2c0.3-0.1 0.5-0.2 0.7-0.1h0.2q0.1 0 0.3-0.1 0.1-0.1 0.2-0.2 0.1-0.1 0.2-0.3 0.1-0.1 0.1-0.3c0.3-0.4 1.1-0.2 1.3-0.8l4.2-3c1.1-0.1 1.4-1.1 2.2-1.7 0.8-0.6 2.3-1.1 2.9-2.1l0.9-0.4h0.1q0.2 0 0.4 0 0.2 0 0.4-0.1 0.1-0.1 0.2-0.3 0.2-0.1 0.2-0.3v0.4c0.8-0.4 1.8 0.3 2.6-0.5 0.7-0.8 0-2.7 0.9-3.8l0.7-0.4q0.3-0.5 0.5-1 0.3-0.5 0.5-1 0.1-0.6 0.3-1.1 0.1-0.5 0.2-1.1l0.2-0.2c0-0.3 0-0.7 0.4-0.9q0.1-0.1 0.2-0.2 0.1-0.1 0.1-0.3 0-0.2 0-0.3 0-0.2-0.1-0.3h-0.2q0-0.1 0-0.1 0 0 0-0.1 0 0 0-0.1 0 0 0 0c0.7 0 0.8-0.7 1.2-1v-1.4q0 0 0 0 0-0.1 0-0.1 0 0 0 0 0-0.1 0-0.1 0-0.1 0-0.1 0-0.1 0-0.2 0-0.1 0.1-0.2 0-0.1 0-0.2z"/>
			<path id="path11" fill-rule="evenodd" class="s1" d="m104.5 60.5v-0.2h0.2c0-0.1 0.1 0 0.1 0.1q0 0.1 0 0.1 0 0.1 0 0.2 0 0 0 0.1 0 0-0.1 0.1c-0.1 0.1-0.2 0-0.2-0.4zm0.3-7.5q0 0.1 0 0.1 0 0.1 0 0.2 0 0.1-0.1 0.1v-0.6h0.1q0 0.1 0 0.2zm-87.9 38.1v0.2h-0.2l-0.2-0.2v-0.2h0.2zm84.8-33c0.1 0 0.1 0 0.1 0.1zm-91.9 26.8l0.4 0.5-0.5-0.5z"/>
			<path id="circle13" class="s1" d="m10.2 85.5z"/>
			<path id="path15" fill-rule="evenodd" class="s1" d="m90.9 22.8h0.1l0.2 0.3zm-85.3 9q0.1 0 0.1 0 0-0.1 0-0.1 0 0 0 0 0-0.1 0-0.1v0.2zm10.4 58.9c0.1 0.1 0 0.2-0.1 0.1h0.1zm0.2 0.7l0.1 0.1h-0.1zm-6.7-61.8h-0.1v0.1-0.1zm92.9 29.9v0.1z"/>
		</g>
	</g>
	<text id="P" style="transform: matrix(1,0,0,1,33,75);paint-order:stroke fill markers;stroke: #000000;stroke-width: 4;stroke-linejoin: round;" >
		<tspan x="0" y="0" class="t2">P
</tspan>
	</text>
</svg>